<svg xmlns:dc="http://purl.org/dc/elements/1.1/" xmlns:cc="http://creativecommons.org/ns#" xmlns:rdf="http://www.w3.org/1999/02/22-rdf-syntax-ns#" xmlns:svg="http://www.w3.org/2000/svg" xmlns="http://www.w3.org/2000/svg" xmlns:sodipodi="http://sodipodi.sourceforge.net/DTD/sodipodi-0.dtd" xmlns:inkscape="http://www.inkscape.org/namespaces/inkscape" fill="#000000" version="1.1" x="0px" y="0px" viewBox="0 0 100 125"><path style="font-size:medium;font-style:normal;font-variant:normal;font-weight:normal;font-stretch:normal;text-indent:0;text-align:start;text-decoration:none;line-height:normal;letter-spacing:normal;word-spacing:normal;text-transform:none;direction:ltr;block-progression:tb;writing-mode:lr-tb;text-anchor:start;baseline-shift:baseline;opacity:1;color:#000000;fill:#000000;fill-opacity:1;stroke:none;stroke-width:1.33333337000000010;marker:none;visibility:visible;display:inline;overflow:visible;enable-background:accumulate;font-family:Sans;-inkscape-font-specification:Sans" d="M 7.8125 23 A 2.0021961 2.0021961 0 1 0 8 27 L 27.5625 27 L 40.375 65.0625 A 2.0002 2.0002 0 0 0 40.40625 65.125 C 41.269253 67.38934 43.457104 69 46 69 C 48.47165 69 50.620485 67.476429 51.53125 65.3125 C 51.54386 65.28254 51.55037 65.24895 51.5625 65.21875 L 51.59375 65.1875 L 56.875 53.8125 L 53.28125 52.0625 L 47.90625 63.625 A 2.0002 2.0002 0 0 0 47.875 63.71875 C 47.585018 64.456321 46.864546 65 46 65 C 45.153735 65 44.457075 64.494513 44.15625 63.78125 L 44.15625 63.75 C 44.15055 63.73597 44.13041 63.73294 44.125 63.71875 L 36.1875 40.0625 L 64.40625 53.90625 C 66.969032 50.92725 70.766895 49.03125 75 49.03125 C 76.961888 49.03125 78.836287 49.424509 80.53125 50.15625 L 92 32 L 33.46875 32 L 30.90625 24.375 A 2.0002 2.0002 0 0 0 29 23 L 8 23 A 2.0002 2.0002 0 0 0 7.8125 23 z M 75 52.96875 C 69.453462 52.96875 64.96875 57.453462 64.96875 63 C 64.96875 68.546538 69.453462 73.03125 75 73.03125 C 80.546538 73.03125 85.03125 68.546538 85.03125 63 C 85.03125 57.453462 80.546538 52.96875 75 52.96875 z M 75 59 C 77.209139 59 79 60.790861 79 63 C 79 65.209139 77.209139 67 75 67 C 72.790861 67 71 65.209139 71 63 C 71 60.790861 72.790861 59 75 59 z "/><text x="0" y="115" fill="#000000" font-size="5px" font-weight="bold" font-family="'Helvetica Neue', Helvetica, Arial-Unicode, Arial, Sans-serif">Created by bezier master</text><text x="0" y="120" fill="#000000" font-size="5px" font-weight="bold" font-family="'Helvetica Neue', Helvetica, Arial-Unicode, Arial, Sans-serif">from the Noun Project</text></svg>