<svg xmlns="http://www.w3.org/2000/svg" data-name="Layer 1" viewBox="0 0 100 125" x="0px" y="0px"><title>17</title><path d="M92.83256,22.47828,22.61662,28.3484l-2.03038-6.43165a1.99978,1.99978,0,0,0-1.414-1.33642L7.49361,17.60914a2.00022,2.00022,0,0,0-.98632,3.877l10.5995,2.69629,9.9911,31.64948V77.20142a5.16,5.16,0,0,0,3.21579,4.832,5.31636,5.31636,0,0,0,2.05369.41895,5.17142,5.17142,0,0,0,3.64645-1.521l23.89953-23.564,7.7017-.03906,3.3735,5.79046a11.081,11.081,0,1,0,3.4562-2.015L71.17355,55.489,94.5718,25.70679a1.99967,1.99967,0,0,0-1.73924-3.22851ZM78.155,64.44605a7.02554,7.02554,0,1,1-5.09968,2.22028l3.37118,5.78656a2.00036,2.00036,0,0,0,3.457-2.01367L76.51034,64.6493A6.97041,6.97041,0,0,1,78.155,64.44605ZM33.20525,78.08277a1.23789,1.23789,0,0,1-2.1074-.88135V57.51362l23.08826-.11713ZM67.78613,53.3274l-37.01481.18793a2.00016,2.00016,0,0,0-.33075-.38275L23.85129,32.25947l64.73815-5.41254Z"/><text x="0" y="115" fill="#000000" font-size="5px" font-weight="bold" font-family="'Helvetica Neue', Helvetica, Arial-Unicode, Arial, Sans-serif">Created by Hrbon</text><text x="0" y="120" fill="#000000" font-size="5px" font-weight="bold" font-family="'Helvetica Neue', Helvetica, Arial-Unicode, Arial, Sans-serif">from the Noun Project</text></svg>