<?xml version="1.0" encoding="utf-8"?>
<!-- Generator: Adobe Illustrator 24.1.3, SVG Export Plug-In . SVG Version: 6.00 Build 0)  -->
<svg version="1.1" id="Layer_1" xmlns="http://www.w3.org/2000/svg" xmlns:xlink="http://www.w3.org/1999/xlink" x="0px" y="0px"
	 viewBox="0 0 641 187" style="enable-background:new 0 0 641 187;" xml:space="preserve">
<style type="text/css">
	.st0{fill:#F17B3E;stroke:#F17B3E;stroke-miterlimit:10;}
	.st1{fill:#010101;}
	.st2{fill:none;}
	.st3{font-family:'GothamBlack';}
	.st4{font-size:60px;}
</style>
<g>
	<circle class="st0" cx="92.5" cy="95.5" r="80.5"/>
	<path class="st1" d="M32.96,62c-1.63,0.08-2.88,1.46-2.81,3.08c0.08,1.63,1.46,2.88,3.08,2.81h28.82l18.88,56.08
		c0.01,0.03,0.03,0.06,0.05,0.09c1.27,3.34,4.49,5.71,8.24,5.71c3.64,0,6.81-2.24,8.15-5.43c0.02-0.04,0.03-0.09,0.05-0.14
		l0.05-0.05l7.78-16.76l-5.29-2.58l-7.92,17.04c-0.02,0.05-0.03,0.09-0.05,0.14c-0.43,1.09-1.49,1.89-2.76,1.89
		c-1.25,0-2.27-0.74-2.72-1.8v-0.05c-0.01-0.02-0.04-0.03-0.05-0.05L74.77,87.14l41.58,20.4c3.78-4.39,9.37-7.18,15.61-7.18
		c2.89,0,5.65,0.58,8.15,1.66L157,75.26H70.76l-3.78-11.23c-0.4-1.21-1.53-2.03-2.81-2.03H33.24C33.15,62,33.05,62,32.96,62z
		 M132.51,106.8c-8.17,0-14.78,6.61-14.78,14.78s6.61,14.78,14.78,14.78s14.78-6.61,14.78-14.78S140.68,106.8,132.51,106.8z
		 M132.51,115.69c3.25,0,5.89,2.64,5.89,5.89s-2.64,5.89-5.89,5.89s-5.89-2.64-5.89-5.89S129.26,115.69,132.51,115.69z"/>
	<rect x="200.69" y="82" class="st2" width="483.31" height="97"/>
	<text transform="matrix(1 0 0 1 200.689 125.7998)" class="st3 st4">WheelBorrow</text>
</g>
</svg>
